<?xml version="1.0" encoding="UTF-8"?><svg xmlns="http://www.w3.org/2000/svg" viewBox="0 0 329.1 329.1"><defs><style>.d{font-size:80px;letter-spacing:.1em;stroke:#005496;}.d,.e,.f{stroke-miterlimit:10;}.d,.f{font-family:HelveticaNeueLTStd-Bd, Helvetica Neue LT Std;}.d,.g{fill:#005496;}.e{fill:#f37021;}.e,.f{stroke:#fff;}.h{letter-spacing:-.02em;}.f{fill:#fff;font-size:26px;stroke-width:.2px;}</style></defs><g id="a"><circle class="e" cx="164.55" cy="164.55" r="164.05"/></g><g id="b"><path class="g" d="M324.57,168.57c-2.29-10.59-35.16-15.33-80.97-12.16,1.12,1.55-7.71,3.41-6.71,5.04,29.51-1.36,59.96,1.98,61.41,8.67,2.57,11.9-53.06,32.24-124.24,45.42-71.19,13.19-130.97,14.23-133.54,2.33-1.55-7.2,6.73-13.86,38.37-23.79,.26-1.82-.77-3.62-.38-5.4-47.33,13.89-65.3,26.01-62.9,37.12,3.48,16.11,75.59,18.65,160.91,2.85,85.32-15.81,151.54-43.97,148.06-60.08"/><text class="d" transform="translate(11.09 160.97)"><tspan x="0" y="0">GALUP</tspan></text></g><g id="c"><text class="f" transform="translate(15.42 197.72)"><tspan x="0" y="0">Ghana Land Use P</tspan><tspan class="h" x="229.24" y="0">r</tspan><tspan x="238.88" y="0">oject</tspan></text></g></svg>